# xmcd CD database file
#
# Track frame offsets:
#	150
#	17572
#	37285
#	55047
#	72787
#	91350
#	125110
#	137687
#	157420
#	172905
#	192010
#	210460
#	223905
#
# Disc length: 3261 seconds
#
# Revision: 0
# Processed by: cddbd v1.4PL0 Copyright (c) Steve Scherf et al.
# Submitted via: CDex 1.50beta10
#
DISCID=c00cbb0d
DTITLE=Dieter Kropp and The Red Hot Blues Band - Red Hot Cookin'
DYEAR=2000
DGENRE=Blues
TTITLE0=Blowin' In
TTITLE1=Barbecue, Whiskey, And Blues
TTITLE2=1896 Shuffle
TTITLE3=Early In The Morning, No.2
TTITLE4=Tryin' To Get Next To You
TTITLE5=What In The World
TTITLE6=The Life I Live
TTITLE7=Slick Chick
TTITLE8=Easy
TTITLE9=A Good One
TTITLE10=Tight Pants
TTITLE11=Just Your Fool
TTITLE12=My Blues Are Gettin' Blue
EXTD=YEAR: 2000
EXTT0=
EXTT1=
EXTT2=
EXTT3=
EXTT4=
EXTT5=
EXTT6=
EXTT7=
EXTT8=
EXTT9=
EXTT10=
EXTT11=
EXTT12=
PLAYORDER=
